<svg width="537" height="212" viewBox="0 0 537 212" fill="none" xmlns="http://www.w3.org/2000/svg">
<path opacity="0.8" d="M0.000429175 206.766V4.55762H34.746L134.711 182.273V4.55762H159.204V206.766H122.749L24.4932 32.468V206.766H0.000429175ZM180.895 206.766V174.583H213.078V206.766H180.895ZM298.7 211.322C283.131 211.322 269.555 208.379 257.974 202.494C246.392 196.608 237.183 188.538 230.348 178.286C223.703 167.843 219.81 155.786 218.671 142.116L244.303 140.407C245.632 150.47 248.575 159.014 253.132 166.039C257.689 173.064 263.765 178.381 271.359 181.988C279.144 185.595 288.447 187.399 299.27 187.399C308.763 187.399 316.832 186.165 323.478 183.697C330.123 181.229 335.154 177.621 338.572 172.874C342.179 168.128 343.983 162.337 343.983 155.502C343.983 149.236 342.464 143.73 339.426 138.983C336.578 134.047 330.977 129.585 322.623 125.598C314.459 121.421 302.307 117.338 286.169 113.351C270.6 109.364 258.163 104.997 248.86 100.25C239.746 95.5038 233.101 89.7128 228.924 82.8776C224.937 76.0424 222.943 67.5934 222.943 57.5304C222.943 46.1384 225.601 36.1704 230.918 27.6264C236.424 18.8926 244.208 12.1523 254.271 7.40562C264.334 2.46909 276.296 0.000830739 290.156 0.000830739C304.966 0.000830739 317.687 2.84883 328.319 8.54482C338.952 14.051 347.401 21.6456 353.666 31.3288C359.932 41.012 363.824 52.0243 365.343 64.3656L339.711 66.0744C338.572 57.9102 335.914 50.6952 331.737 44.4296C327.75 37.9742 322.243 32.9427 315.218 29.3352C308.193 25.7278 299.649 23.924 289.586 23.924C277.055 23.924 267.087 26.9619 259.682 33.0376C252.278 38.9235 248.575 46.708 248.575 56.3912C248.575 62.6568 249.999 67.8782 252.847 72.0552C255.885 76.0424 261.201 79.6499 268.796 82.8776C276.391 85.9155 287.308 89.2382 301.548 92.8456C318.446 97.0227 331.832 102.054 341.705 107.94C351.768 113.636 358.888 120.281 363.065 127.876C367.432 135.471 369.615 144.11 369.615 153.793C369.615 165.565 366.577 175.817 360.502 184.551C354.426 193.095 346.072 199.741 335.439 204.487C324.807 209.044 312.56 211.322 298.7 211.322ZM458.657 155.786C447.835 155.786 437.677 153.793 428.184 149.806C418.88 145.629 410.621 140.027 403.406 133.002C396.381 125.787 390.875 117.528 386.888 108.225C382.901 98.7315 380.907 88.5736 380.907 77.7512C380.907 66.9288 382.901 56.8659 386.888 47.5624C390.875 38.0691 396.381 29.8099 403.406 22.7848C410.621 15.5699 418.88 9.96883 428.184 5.98162C437.677 1.99443 447.835 0.000830739 458.657 0.000830739C469.48 0.000830739 479.543 1.99443 488.846 5.98162C498.15 9.96883 506.314 15.5699 513.339 22.7848C520.554 29.8099 526.155 38.0691 530.142 47.5624C534.129 56.8659 536.123 66.9288 536.123 77.7512C536.123 88.5736 534.129 98.7315 530.142 108.225C526.155 117.528 520.554 125.787 513.339 133.002C506.314 140.027 498.15 145.629 488.846 149.806C479.543 153.793 469.48 155.786 458.657 155.786ZM458.657 139.553C470.809 139.553 481.441 136.8 490.555 131.294C499.669 125.598 506.789 118.098 511.915 108.794C517.231 99.3011 519.889 88.9534 519.889 77.7512C519.889 66.5491 517.231 56.2963 511.915 46.9928C506.789 37.6894 499.669 30.2846 490.555 24.7784C481.441 19.2723 470.809 16.5192 458.657 16.5192C446.506 16.5192 435.779 19.2723 426.475 24.7784C417.361 30.2846 410.147 37.6894 404.83 46.9928C399.704 56.2963 397.141 66.5491 397.141 77.7512C397.141 88.9534 399.704 99.3011 404.83 108.794C410.147 118.098 417.361 125.598 426.475 131.294C435.779 136.8 446.506 139.553 458.657 139.553ZM427.614 120.471V35.6008H455.809C466.822 35.6008 475.366 37.8792 481.441 42.436C487.707 46.9928 490.84 53.3534 490.84 61.5176C490.84 67.4035 489.226 72.435 485.998 76.612C482.771 80.7891 478.214 83.6371 472.328 85.156L494.257 120.471H476.315L456.664 87.1496H443.563V120.471H427.614ZM443.563 74.0488H458.088C463.594 74.0488 467.866 72.9096 470.904 70.6312C473.942 68.163 475.461 64.9352 475.461 60.948C475.461 57.1507 473.942 54.2078 470.904 52.1192C467.866 50.0307 463.594 48.9864 458.088 48.9864H443.563V74.0488Z" fill="#221C1C"/>
</svg>
