<svg viewBox="0 0 1329 175" fill="none" xmlns="http://www.w3.org/2000/svg">
  <path opacity="0.1" d="M0.000429175 258.027V55.8193H34.746L134.711 233.535V55.8193H159.204V258.027H122.749L24.4932 83.7297V258.027H0.000429175ZM269.561 262.584C250.385 262.584 233.866 258.407 220.006 250.053C206.336 241.509 195.798 229.357 188.393 213.599C180.989 197.84 177.286 179.043 177.286 157.208C177.286 135.373 180.989 116.577 188.393 100.818C195.798 84.8689 206.336 72.6225 220.006 64.0785C233.866 55.5345 250.385 51.2625 269.561 51.2625C288.928 51.2625 305.446 55.5345 319.117 64.0785C332.977 72.6225 343.609 84.8689 351.014 100.818C358.419 116.577 362.121 135.373 362.121 157.208C362.121 179.043 358.419 197.84 351.014 213.599C343.609 229.357 332.977 241.509 319.117 250.053C305.446 258.407 288.928 262.584 269.561 262.584ZM269.561 238.661C283.612 238.661 295.573 235.433 305.446 228.978C315.509 222.522 323.199 213.219 328.515 201.067C333.831 188.916 336.489 174.296 336.489 157.208C336.489 140.12 333.831 125.5 328.515 113.349C323.199 101.008 315.509 91.6092 305.446 85.1537C295.573 78.5084 283.612 75.1857 269.561 75.1857C255.701 75.1857 243.74 78.5084 233.677 85.1537C223.804 91.6092 216.209 101.008 210.893 113.349C205.576 125.5 202.918 140.12 202.918 157.208C202.918 174.296 205.576 188.916 210.893 201.067C216.209 213.219 223.804 222.522 233.677 228.978C243.74 235.433 255.701 238.661 269.561 238.661ZM380.231 258.027V55.8193H507.251V79.7425H404.723V144.962H503.834V168.315H404.723V234.104H509.53V258.027H380.231ZM433.773 36.4529L452.57 -0.00145035H479.341L453.709 36.4529H433.773ZM531.965 258.027V55.8193H566.141L630.79 231.256L695.155 55.8193H729.331V258.027H704.838V101.387L647.024 258.027H614.272L556.457 101.387V258.027H531.965ZM759.07 258.027V55.8193H783.563V258.027H759.07ZM813.182 258.027V55.8193H940.203V79.7425H837.675V144.962H936.785V168.315H837.675V234.104H942.481V258.027H813.182ZM1091.3 262.584C1075.73 262.584 1062.16 259.641 1050.57 253.755C1038.99 247.869 1029.78 239.8 1022.95 229.547C1016.3 219.105 1012.41 207.048 1011.27 193.378L1036.9 191.669C1038.23 201.732 1041.18 210.276 1045.73 217.301C1050.29 224.326 1056.37 229.642 1063.96 233.25C1071.74 236.857 1081.05 238.661 1091.87 238.661C1101.36 238.661 1109.43 237.427 1116.08 234.959C1122.72 232.49 1127.75 228.883 1131.17 224.136C1134.78 219.389 1136.58 213.599 1136.58 206.763C1136.58 200.498 1135.06 194.992 1132.03 190.245C1129.18 185.308 1123.58 180.847 1115.22 176.859C1107.06 172.682 1094.91 168.6 1078.77 164.613C1063.2 160.626 1050.76 156.259 1041.46 151.512C1032.35 146.765 1025.7 140.975 1021.52 134.139C1017.54 127.304 1015.54 118.855 1015.54 108.792C1015.54 97.4001 1018.2 87.4321 1023.52 78.8881C1029.02 70.1543 1036.81 63.414 1046.87 58.6673C1056.93 53.7308 1068.9 51.2625 1082.76 51.2625C1097.57 51.2625 1110.29 54.1105 1120.92 59.8065C1131.55 65.3127 1140 72.9073 1146.27 82.5905C1152.53 92.2737 1156.42 103.286 1157.94 115.627L1132.31 117.336C1131.17 109.172 1128.51 101.957 1124.34 95.6913C1120.35 89.2359 1114.84 84.2044 1107.82 80.5969C1100.79 76.9895 1092.25 75.1857 1082.19 75.1857C1069.66 75.1857 1059.69 78.2236 1052.28 84.2993C1044.88 90.1852 1041.18 97.9697 1041.18 107.653C1041.18 113.919 1042.6 119.14 1045.45 123.317C1048.49 127.304 1053.8 130.912 1061.4 134.139C1068.99 137.177 1079.91 140.5 1094.15 144.107C1111.05 148.284 1124.43 153.316 1134.31 159.202C1144.37 164.898 1151.49 171.543 1155.67 179.138C1160.03 186.732 1162.22 195.371 1162.22 205.055C1162.22 216.826 1159.18 227.079 1153.1 235.813C1147.03 244.357 1138.67 251.002 1128.04 255.749C1117.41 260.306 1105.16 262.584 1091.3 262.584ZM1251.26 207.048C1240.44 207.048 1230.28 205.055 1220.78 201.067C1211.48 196.89 1203.22 191.289 1196.01 184.264C1188.98 177.049 1183.48 168.79 1179.49 159.487C1175.5 149.993 1173.51 139.835 1173.51 129.013C1173.51 118.191 1175.5 108.128 1179.49 98.8241C1183.48 89.3308 1188.98 81.0716 1196.01 74.0465C1203.22 66.8316 1211.48 61.2305 1220.78 57.2433C1230.28 53.2561 1240.44 51.2625 1251.26 51.2625C1262.08 51.2625 1272.14 53.2561 1281.45 57.2433C1290.75 61.2305 1298.91 66.8316 1305.94 74.0465C1313.15 81.0716 1318.76 89.3308 1322.74 98.8241C1326.73 108.128 1328.72 118.191 1328.72 129.013C1328.72 139.835 1326.73 149.993 1322.74 159.487C1318.76 168.79 1313.15 177.049 1305.94 184.264C1298.91 191.289 1290.75 196.89 1281.45 201.067C1272.14 205.055 1262.08 207.048 1251.26 207.048ZM1251.26 190.815C1263.41 190.815 1274.04 188.061 1283.16 182.555C1292.27 176.859 1299.39 169.36 1304.52 160.056C1309.83 150.563 1312.49 140.215 1312.49 129.013C1312.49 117.811 1309.83 107.558 1304.52 98.2545C1299.39 88.9511 1292.27 81.5463 1283.16 76.0401C1274.04 70.534 1263.41 67.7809 1251.26 67.7809C1239.11 67.7809 1228.38 70.534 1219.08 76.0401C1209.96 81.5463 1202.75 88.9511 1197.43 98.2545C1192.3 107.558 1189.74 117.811 1189.74 129.013C1189.74 140.215 1192.3 150.563 1197.43 160.056C1202.75 169.36 1209.96 176.859 1219.08 182.555C1228.38 188.061 1239.11 190.815 1251.26 190.815ZM1220.21 171.733V86.8625H1248.41C1259.42 86.8625 1267.97 89.1409 1274.04 93.6977C1280.31 98.2545 1283.44 104.615 1283.44 112.779C1283.44 118.665 1281.83 123.697 1278.6 127.874C1275.37 132.051 1270.81 134.899 1264.93 136.418L1286.86 171.733H1268.92L1249.26 138.411H1236.16V171.733H1220.21ZM1236.16 125.311H1250.69C1256.19 125.311 1260.47 124.171 1263.5 121.893C1266.54 119.425 1268.06 116.197 1268.06 112.21C1268.06 108.412 1266.54 105.469 1263.5 103.381C1260.47 101.292 1256.19 100.248 1250.69 100.248H1236.16V125.311Z" fill="#EAE3DC"/>
</svg>
